TITLE ""
FILE "1Q_t_1910-1919.mp3" MP3
  TRACK 01 AUDIO
    TITLE "1Q_t_1910-1919_01"
    INDEX 01 00:00:00
  TRACK 02 AUDIO
    TITLE "1Q_t_1910-1919_02"
    INDEX 01 00:00:10
  TRACK 03 AUDIO
    TITLE "1Q_t_1910-1919_03"
    INDEX 01 00:01:14
  TRACK 04 AUDIO
    TITLE "1Q_t_1910-1919_04"
    INDEX 01 00:01:25
  TRACK 05 AUDIO
    TITLE "1Q_t_1910-1919_05"
    INDEX 01 00:04:67
  TRACK 06 AUDIO
    TITLE "1Q_t_1910-1919_06"
    INDEX 01 00:05:02
  TRACK 07 AUDIO
    TITLE "1Q_t_1910-1919_07"
    INDEX 01 00:10:22
  TRACK 08 AUDIO
    TITLE "1Q_t_1910-1919_08"
    INDEX 01 00:10:69
  TRACK 09 AUDIO
    TITLE "1Q_t_1910-1919_09"
    INDEX 01 00:12:19
  TRACK 10 AUDIO
    TITLE "1Q_t_1910-1919_10"
    INDEX 01 00:12:29
  TRACK 11 AUDIO
    TITLE "1Q_t_1910-1919_11"
    INDEX 01 00:15:49
  TRACK 12 AUDIO
    TITLE "1Q_t_1910-1919_12"
    INDEX 01 00:15:59
  TRACK 13 AUDIO
    TITLE "1Q_t_1910-1919_13"
    INDEX 01 00:19:74
  TRACK 14 AUDIO
    TITLE "1Q_t_1910-1919_14"
    INDEX 01 00:20:44
  TRACK 15 AUDIO
    TITLE "1Q_t_1910-1919_15"
    INDEX 01 00:21:40
  TRACK 16 AUDIO
    TITLE "1Q_t_1910-1919_16"
    INDEX 01 00:21:52
  TRACK 17 AUDIO
    TITLE "1Q_t_1910-1919_17"
    INDEX 01 00:23:07
  TRACK 18 AUDIO
    TITLE "1Q_t_1910-1919_18"
    INDEX 01 00:23:17
  TRACK 19 AUDIO
    TITLE "1Q_t_1910-1919_19"
    INDEX 01 00:27:56
  TRACK 20 AUDIO
    TITLE "1Q_t_1910-1919_20"
    INDEX 01 00:28:28
  TRACK 21 AUDIO
    TITLE "1Q_t_1910-1919_21"
    INDEX 01 00:29:41
  TRACK 22 AUDIO
    TITLE "1Q_t_1910-1919_22"
    INDEX 01 00:29:51
  TRACK 23 AUDIO
    TITLE "1Q_t_1910-1919_23"
    INDEX 01 00:31:27
  TRACK 24 AUDIO
    TITLE "1Q_t_1910-1919_24"
    INDEX 01 00:31:36
  TRACK 25 AUDIO
    TITLE "1Q_t_1910-1919_25"
    INDEX 01 00:35:16
  TRACK 26 AUDIO
    TITLE "1Q_t_1910-1919_26"
    INDEX 01 00:35:65
  TRACK 27 AUDIO
    TITLE "1Q_t_1910-1919_27"
    INDEX 01 00:36:61
  TRACK 28 AUDIO
    TITLE "1Q_t_1910-1919_28"
    INDEX 01 00:36:71
  TRACK 29 AUDIO
    TITLE "1Q_t_1910-1919_29"
    INDEX 01 00:38:42
  TRACK 30 AUDIO
    TITLE "1Q_t_1910-1919_30"
    INDEX 01 00:38:50
  TRACK 31 AUDIO
    TITLE "1Q_t_1910-1919_31"
    INDEX 01 00:43:22
  TRACK 32 AUDIO
    TITLE "1Q_t_1910-1919_32"
    INDEX 01 00:43:71
  TRACK 33 AUDIO
    TITLE "1Q_t_1910-1919_33"
    INDEX 01 00:44:62
  TRACK 34 AUDIO
    TITLE "1Q_t_1910-1919_34"
    INDEX 01 00:44:72
  TRACK 35 AUDIO
    TITLE "1Q_t_1910-1919_35"
    INDEX 01 00:47:41
  TRACK 36 AUDIO
    TITLE "1Q_t_1910-1919_36"
    INDEX 01 00:47:49
  TRACK 37 AUDIO
    TITLE "1Q_t_1910-1919_37"
    INDEX 01 00:51:25
  TRACK 38 AUDIO
    TITLE "1Q_t_1910-1919_38"
    INDEX 01 00:51:72
  TRACK 39 AUDIO
    TITLE "1Q_t_1910-1919_39"
    INDEX 01 00:53:14
  TRACK 40 AUDIO
    TITLE "1Q_t_1910-1919_40"
    INDEX 01 00:53:22
  TRACK 41 AUDIO
    TITLE "1Q_t_1910-1919_41"
    INDEX 01 00:56:56
  TRACK 42 AUDIO
    TITLE "1Q_t_1910-1919_42"
    INDEX 01 00:56:66
  TRACK 43 AUDIO
    TITLE "1Q_t_1910-1919_43"
    INDEX 01 01:01:14
  TRACK 44 AUDIO
    TITLE "1Q_t_1910-1919_44"
    INDEX 01 01:01:61
  TRACK 45 AUDIO
    TITLE "1Q_t_1910-1919_45"
    INDEX 01 01:03:01
  TRACK 46 AUDIO
    TITLE "1Q_t_1910-1919_46"
    INDEX 01 01:03:13
  TRACK 47 AUDIO
    TITLE "1Q_t_1910-1919_47"
    INDEX 01 01:04:30
  TRACK 48 AUDIO
    TITLE "1Q_t_1910-1919_48"
    INDEX 01 01:04:40
  TRACK 49 AUDIO
    TITLE "1Q_t_1910-1919_49"
    INDEX 01 01:09:17
  TRACK 50 AUDIO
    TITLE "1Q_t_1910-1919_50"
    INDEX 01 01:09:62
  TRACK 51 AUDIO
    TITLE "1Q_t_1910-1919_51"
    INDEX 01 01:10:72
  TRACK 52 AUDIO
    TITLE "1Q_t_1910-1919_52"
    INDEX 01 01:11:06
  TRACK 53 AUDIO
    TITLE "1Q_t_1910-1919_53"
    INDEX 01 01:16:00
  TRACK 54 AUDIO
    TITLE "1Q_t_1910-1919_54"
    INDEX 01 01:16:08
  TRACK 55 AUDIO
    TITLE "1Q_t_1910-1919_55"
    INDEX 01 01:20:17
  TRACK 56 AUDIO
    TITLE "1Q_t_1910-1919_56"
    INDEX 01 01:20:66
  TRACK 57 AUDIO
    TITLE "1Q_t_1910-1919_57"
    INDEX 01 01:22:02
  TRACK 58 AUDIO
    TITLE "1Q_t_1910-1919_58"
    INDEX 01 01:22:12
  TRACK 59 AUDIO
    TITLE "1Q_t_1910-1919_59"
    INDEX 01 01:24:21
  TRACK 60 AUDIO
    TITLE "1Q_t_1910-1919_60"
    INDEX 01 01:24:31
  TRACK 61 AUDIO
    TITLE "1Q_t_1910-1919_61"
    INDEX 01 01:28:44
